<?xml version="1.0" encoding="UTF-8"?>
<!DOCTYPE svg PUBLIC "-//W3C//DTD SVG 1.1//EN" "http://www.w3.org/Graphics/SVG/1.1/DTD/svg11.dtd">
<svg xmlns="http://www.w3.org/2000/svg" style="background: #ffffff; background-color: #ffffff; color-scheme: light;" xmlns:xlink="http://www.w3.org/1999/xlink" version="1.1" width="1236px" height="1206px" viewBox="0 0 1236 1206"><defs><style type="text/css">text { font-family: 'PingFang SC', 'Microsoft YaHei', 'Noto Sans CJK SC', system-ui, sans-serif; }</style></defs><rect fill="#ffffff" width="100%" height="100%" x="0" y="0" style="fill: rgb(255, 255, 255);"/><g><g data-cell-id="0"><g data-cell-id="1"><g data-cell-id="title"><g><rect x="25" y="25" width="1160" height="44" fill="none" stroke="none" pointer-events="all"/></g><g><g fill="#1e293b" font-family="'PingFang SC', 'Microsoft YaHei', 'Noto Sans CJK SC', system-ui, sans-serif" text-anchor="middle" font-size="20px" style="fill: rgb(30, 41, 59);"><text x="605" y="56">P4 二级数据流（重复信息集合表示同一来源）</text></g></g></g><g data-cell-id="admin"><g transform="translate(0.5,0.5)"><rect x="50" y="135" width="245" height="84" fill="#dbeafe" stroke="#3b82f6" stroke-width="1.3" pointer-events="all" style="fill: rgb(219, 234, 254); stroke: rgb(59, 130, 246);"/></g><g><g fill="#1e293b" font-family="'PingFang SC', 'Microsoft YaHei', 'Noto Sans CJK SC', system-ui, sans-serif" text-anchor="middle" font-size="14px" style="fill: rgb(30, 41, 59);"><text x="172.5" y="174.5">E2 管理员</text><text x="172.5" y="191.5">授权／撤销请求</text></g></g></g><g data-cell-id="system"><g transform="translate(0.5,0.5)"><rect x="50" y="390" width="245" height="84" fill="#d1fae5" stroke="#22c55e" stroke-width="1.3" pointer-events="all" style="fill: rgb(209, 250, 229); stroke: rgb(34, 197, 94);"/></g><g><g fill="#1e293b" font-family="'PingFang SC', 'Microsoft YaHei', 'Noto Sans CJK SC', system-ui, sans-serif" text-anchor="middle" font-size="14px" style="fill: rgb(30, 41, 59);"><text x="172.5" y="429.5">E3 外部系统／E2 管理员</text><text x="172.5" y="446.5">鉴权／有效权限查询</text></g></g></g><g data-cell-id="p41"><g transform="translate(0.5,0.5)"><rect x="480" y="135" width="280" height="84" rx="23.52" ry="23.52" fill="#fef3c7" stroke="#f59e0b" stroke-width="1.3" pointer-events="all" style="fill: rgb(254, 243, 199); stroke: rgb(245, 158, 11);"/></g><g><g fill="#1e293b" font-family="'PingFang SC', 'Microsoft YaHei', 'Noto Sans CJK SC', system-ui, sans-serif" text-anchor="middle" font-size="14px" style="fill: rgb(30, 41, 59);"><text x="620" y="174.5">P4.1 管理授权</text><text x="620" y="191.5">范围、单角色及冲突校验</text></g></g></g><g data-cell-id="p42"><g transform="translate(0.5,0.5)"><rect x="480" y="390" width="280" height="84" rx="23.52" ry="23.52" fill="#fef3c7" stroke="#f59e0b" stroke-width="1.3" pointer-events="all" style="fill: rgb(254, 243, 199); stroke: rgb(245, 158, 11);"/></g><g><g fill="#1e293b" font-family="'PingFang SC', 'Microsoft YaHei', 'Noto Sans CJK SC', system-ui, sans-serif" text-anchor="middle" font-size="14px" style="fill: rgb(30, 41, 59);"><text x="620" y="429.5">P4.2 校验鉴权上下文</text><text x="620" y="446.5">系统、员工及会话</text></g></g></g><g data-cell-id="p43"><g transform="translate(0.5,0.5)"><rect x="480" y="665" width="280" height="84" rx="23.52" ry="23.52" fill="#fef3c7" stroke="#f59e0b" stroke-width="1.3" pointer-events="all" style="fill: rgb(254, 243, 199); stroke: rgb(245, 158, 11);"/></g><g><g fill="#1e293b" font-family="'PingFang SC', 'Microsoft YaHei', 'Noto Sans CJK SC', system-ui, sans-serif" text-anchor="middle" font-size="14px" style="fill: rgb(30, 41, 59);"><text x="620" y="704.5">P4.3 求有效权限</text><text x="620" y="721.5">范围、分配、角色及目录</text></g></g></g><g data-cell-id="p44"><g transform="translate(0.5,0.5)"><rect x="50" y="945" width="270" height="84" rx="23.52" ry="23.52" fill="#f3e8ff" stroke="#a855f7" stroke-width="1.3" pointer-events="all" style="fill: rgb(243, 232, 255); stroke: rgb(168, 85, 247);"/></g><g><g fill="#1e293b" font-family="'PingFang SC', 'Microsoft YaHei', 'Noto Sans CJK SC', system-ui, sans-serif" text-anchor="middle" font-size="14px" style="fill: rgb(30, 41, 59);"><text x="185" y="984.5">P4.4 输出结果</text><text x="185" y="1001.5">管理结果／判断结论</text></g></g></g><g data-cell-id="result"><g transform="translate(0.5,0.5)"><rect x="480" y="945" width="280" height="84" fill="#d1fae5" stroke="#22c55e" stroke-width="1.3" pointer-events="all" style="fill: rgb(209, 250, 229); stroke: rgb(34, 197, 94);"/></g><g><g fill="#1e293b" font-family="'PingFang SC', 'Microsoft YaHei', 'Noto Sans CJK SC', system-ui, sans-serif" text-anchor="middle" font-size="14px" style="fill: rgb(30, 41, 59);"><text x="620" y="984.5">E2 管理员／E3 外部系统</text><text x="620" y="1001.5">变更结果、权限与判断</text></g></g></g><g data-cell-id="p5"><g transform="translate(0.5,0.5)"><rect x="870" y="945" width="285" height="84" rx="23.52" ry="23.52" fill="#f8fafc" stroke="#94a3b8" stroke-width="1.3" pointer-events="all" style="fill: rgb(248, 250, 252); stroke: rgb(148, 163, 184);"/></g><g><g fill="#1e293b" font-family="'PingFang SC', 'Microsoft YaHei', 'Noto Sans CJK SC', system-ui, sans-serif" text-anchor="middle" font-size="14px" style="fill: rgb(30, 41, 59);"><text x="1012.5" y="984.5">P5 审计查询与统计</text><text x="1012.5" y="1001.5">管理变更、拒绝、异常</text></g></g></g><g data-cell-id="e1"><g transform="translate(0.5,0.5)"><path d="M 295 177 Q 295 177 471.57 177" fill="none" stroke="#64748b" stroke-width="1.3" stroke-miterlimit="10" pointer-events="stroke" style="stroke: rgb(100, 116, 139);"/><path d="M 478.55 177 L 469.25 181.65 L 471.57 177 L 469.25 172.35 Z" fill="#64748b" stroke="#64748b" stroke-width="1.3" stroke-miterlimit="10" pointer-events="all" style="fill: rgb(100, 116, 139); stroke: rgb(100, 116, 139);"/></g></g><g data-cell-id="e1-label"><g><rect x="300" y="97" width="180" height="30" fill="none" stroke="none" pointer-events="all"/></g><g><g fill="#1e293b" font-family="'PingFang SC', 'Microsoft YaHei', 'Noto Sans CJK SC', system-ui, sans-serif" text-anchor="middle" font-size="12px" style="fill: rgb(30, 41, 59);"><text x="390" y="117">管理请求</text></g></g></g><g data-cell-id="e2"><g transform="translate(0.5,0.5)"><path d="M 295 432 Q 295 432 471.57 432" fill="none" stroke="#64748b" stroke-width="1.3" stroke-miterlimit="10" pointer-events="stroke" style="stroke: rgb(100, 116, 139);"/><path d="M 478.55 432 L 469.25 436.65 L 471.57 432 L 469.25 427.35 Z" fill="#64748b" stroke="#64748b" stroke-width="1.3" stroke-miterlimit="10" pointer-events="all" style="fill: rgb(100, 116, 139); stroke: rgb(100, 116, 139);"/></g></g><g data-cell-id="e2-label"><g><rect x="375" y="345" width="165" height="30" fill="none" stroke="none" pointer-events="all"/></g><g><g fill="#1e293b" font-family="'PingFang SC', 'Microsoft YaHei', 'Noto Sans CJK SC', system-ui, sans-serif" text-anchor="middle" font-size="12px" style="fill: rgb(30, 41, 59);"><text x="457.5" y="365">鉴权／查询请求</text></g></g></g><g data-cell-id="p41-d0"><g transform="translate(0.5,0.5)"><rect x="925" y="120" width="235" height="40" fill="#d1fae5" stroke="none" pointer-events="all" style="fill: rgb(209, 250, 229);"/><path d="M 925 120 L 1160 120 M 1160 160 L 925 160" fill="none" stroke="#22c55e" stroke-width="1.3" stroke-linecap="square" stroke-miterlimit="10" pointer-events="all" style="stroke: rgb(34, 197, 94);"/></g><g><g fill="#1e293b" font-family="'PingFang SC', 'Microsoft YaHei', 'Noto Sans CJK SC', system-ui, sans-serif" text-anchor="middle" font-size="14px" style="fill: rgb(30, 41, 59);"><text x="1042.5" y="146">D1 员工与管理范围</text></g></g></g><g data-cell-id="e3"><g transform="translate(0.5,0.5)"><path d="M 925 140 Q 845 140 845 158.5 Q 845 177 768.43 177" fill="none" stroke="#64748b" stroke-width="1.3" stroke-miterlimit="10" pointer-events="stroke" style="stroke: rgb(100, 116, 139);"/><path d="M 761.45 177 L 770.75 172.35 L 768.43 177 L 770.75 181.65 Z" fill="#64748b" stroke="#64748b" stroke-width="1.3" stroke-miterlimit="10" pointer-events="all" style="fill: rgb(100, 116, 139); stroke: rgb(100, 116, 139);"/></g></g><g data-cell-id="e3-label"><g><rect x="863" y="93" width="62" height="28" fill="none" stroke="none" pointer-events="all"/></g><g><g fill="#1e293b" font-family="'PingFang SC', 'Microsoft YaHei', 'Noto Sans CJK SC', system-ui, sans-serif" text-anchor="middle" font-size="12px" style="fill: rgb(30, 41, 59);"><text x="894" y="112">管理范围</text></g></g></g><g data-cell-id="p41-d1"><g transform="translate(0.5,0.5)"><rect x="925" y="186" width="235" height="40" fill="#d1fae5" stroke="none" pointer-events="all" style="fill: rgb(209, 250, 229);"/><path d="M 925 186 L 1160 186 M 1160 226 L 925 226" fill="none" stroke="#22c55e" stroke-width="1.3" stroke-linecap="square" stroke-miterlimit="10" pointer-events="all" style="stroke: rgb(34, 197, 94);"/></g><g><g fill="#1e293b" font-family="'PingFang SC', 'Microsoft YaHei', 'Noto Sans CJK SC', system-ui, sans-serif" text-anchor="middle" font-size="14px" style="fill: rgb(30, 41, 59);"><text x="1042.5" y="212">D2 系统与目录角色</text></g></g></g><g data-cell-id="e4"><g transform="translate(0.5,0.5)"><path d="M 925 206 Q 845 206 845 191.5 Q 845 177 768.43 177" fill="none" stroke="#64748b" stroke-width="1.3" stroke-miterlimit="10" pointer-events="stroke" style="stroke: rgb(100, 116, 139);"/><path d="M 761.45 177 L 770.75 172.35 L 768.43 177 L 770.75 181.65 Z" fill="#64748b" stroke="#64748b" stroke-width="1.3" stroke-miterlimit="10" pointer-events="all" style="fill: rgb(100, 116, 139); stroke: rgb(100, 116, 139);"/></g></g><g data-cell-id="e4-label"><g><rect x="863" y="159" width="62" height="28" fill="none" stroke="none" pointer-events="all"/></g><g><g fill="#1e293b" font-family="'PingFang SC', 'Microsoft YaHei', 'Noto Sans CJK SC', system-ui, sans-serif" text-anchor="middle" font-size="12px" style="fill: rgb(30, 41, 59);"><text x="894" y="178">可选角色</text></g></g></g><g data-cell-id="p41-d2"><g transform="translate(0.5,0.5)"><rect x="925" y="252" width="235" height="40" fill="#d1fae5" stroke="none" pointer-events="all" style="fill: rgb(209, 250, 229);"/><path d="M 925 252 L 1160 252 M 1160 292 L 925 292" fill="none" stroke="#22c55e" stroke-width="1.3" stroke-linecap="square" stroke-miterlimit="10" pointer-events="all" style="stroke: rgb(34, 197, 94);"/></g><g><g fill="#1e293b" font-family="'PingFang SC', 'Microsoft YaHei', 'Noto Sans CJK SC', system-ui, sans-serif" text-anchor="middle" font-size="14px" style="fill: rgb(30, 41, 59);"><text x="1042.5" y="278">D4 员工角色分配</text></g></g></g><g data-cell-id="e5"><g transform="translate(0.5,0.5)"><path d="M 916.57 272 Q 845 272 845 224.5 Q 845 177 768.43 177" fill="none" stroke="#64748b" stroke-width="1.3" stroke-miterlimit="10" pointer-events="stroke" style="stroke: rgb(100, 116, 139);"/><path d="M 923.55 272 L 914.25 276.65 L 916.57 272 L 914.25 267.35 Z" fill="#64748b" stroke="#64748b" stroke-width="1.3" stroke-miterlimit="10" pointer-events="all" style="fill: rgb(100, 116, 139); stroke: rgb(100, 116, 139);"/><path d="M 761.45 177 L 770.75 172.35 L 768.43 177 L 770.75 181.65 Z" fill="#64748b" stroke="#64748b" stroke-width="1.3" stroke-miterlimit="10" pointer-events="all" style="fill: rgb(100, 116, 139); stroke: rgb(100, 116, 139);"/></g></g><g data-cell-id="e5-label"><g><rect x="863" y="225" width="62" height="28" fill="none" stroke="none" pointer-events="all"/></g><g><g fill="#1e293b" font-family="'PingFang SC', 'Microsoft YaHei', 'Noto Sans CJK SC', system-ui, sans-serif" text-anchor="middle" font-size="12px" style="fill: rgb(30, 41, 59);"><text x="894" y="244">角色分配</text></g></g></g><g data-cell-id="p42-d0"><g transform="translate(0.5,0.5)"><rect x="925" y="375" width="235" height="40" fill="#d1fae5" stroke="none" pointer-events="all" style="fill: rgb(209, 250, 229);"/><path d="M 925 375 L 1160 375 M 1160 415 L 925 415" fill="none" stroke="#22c55e" stroke-width="1.3" stroke-linecap="square" stroke-miterlimit="10" pointer-events="all" style="stroke: rgb(34, 197, 94);"/></g><g><g fill="#1e293b" font-family="'PingFang SC', 'Microsoft YaHei', 'Noto Sans CJK SC', system-ui, sans-serif" text-anchor="middle" font-size="14px" style="fill: rgb(30, 41, 59);"><text x="1042.5" y="401">D1 员工与管理范围</text></g></g></g><g data-cell-id="e6"><g transform="translate(0.5,0.5)"><path d="M 925 395 Q 845 395 845 413.5 Q 845 432 768.43 432" fill="none" stroke="#64748b" stroke-width="1.3" stroke-miterlimit="10" pointer-events="stroke" style="stroke: rgb(100, 116, 139);"/><path d="M 761.45 432 L 770.75 427.35 L 768.43 432 L 770.75 436.65 Z" fill="#64748b" stroke="#64748b" stroke-width="1.3" stroke-miterlimit="10" pointer-events="all" style="fill: rgb(100, 116, 139); stroke: rgb(100, 116, 139);"/></g></g><g data-cell-id="e6-label"><g><rect x="863" y="348" width="62" height="28" fill="none" stroke="none" pointer-events="all"/></g><g><g fill="#1e293b" font-family="'PingFang SC', 'Microsoft YaHei', 'Noto Sans CJK SC', system-ui, sans-serif" text-anchor="middle" font-size="12px" style="fill: rgb(30, 41, 59);"><text x="894" y="367">身份范围</text></g></g></g><g data-cell-id="p42-d1"><g transform="translate(0.5,0.5)"><rect x="925" y="441" width="235" height="40" fill="#d1fae5" stroke="none" pointer-events="all" style="fill: rgb(209, 250, 229);"/><path d="M 925 441 L 1160 441 M 1160 481 L 925 481" fill="none" stroke="#22c55e" stroke-width="1.3" stroke-linecap="square" stroke-miterlimit="10" pointer-events="all" style="stroke: rgb(34, 197, 94);"/></g><g><g fill="#1e293b" font-family="'PingFang SC', 'Microsoft YaHei', 'Noto Sans CJK SC', system-ui, sans-serif" text-anchor="middle" font-size="14px" style="fill: rgb(30, 41, 59);"><text x="1042.5" y="467">D2 系统与目录角色</text></g></g></g><g data-cell-id="e7"><g transform="translate(0.5,0.5)"><path d="M 925 461 Q 845 461 845 446.5 Q 845 432 768.43 432" fill="none" stroke="#64748b" stroke-width="1.3" stroke-miterlimit="10" pointer-events="stroke" style="stroke: rgb(100, 116, 139);"/><path d="M 761.45 432 L 770.75 427.35 L 768.43 432 L 770.75 436.65 Z" fill="#64748b" stroke="#64748b" stroke-width="1.3" stroke-miterlimit="10" pointer-events="all" style="fill: rgb(100, 116, 139); stroke: rgb(100, 116, 139);"/></g></g><g data-cell-id="e7-label"><g><rect x="863" y="414" width="62" height="28" fill="none" stroke="none" pointer-events="all"/></g><g><g fill="#1e293b" font-family="'PingFang SC', 'Microsoft YaHei', 'Noto Sans CJK SC', system-ui, sans-serif" text-anchor="middle" font-size="12px" style="fill: rgb(30, 41, 59);"><text x="894" y="433">系统状态</text></g></g></g><g data-cell-id="p42-d2"><g transform="translate(0.5,0.5)"><rect x="925" y="507" width="235" height="40" fill="#d1fae5" stroke="none" pointer-events="all" style="fill: rgb(209, 250, 229);"/><path d="M 925 507 L 1160 507 M 1160 547 L 925 547" fill="none" stroke="#22c55e" stroke-width="1.3" stroke-linecap="square" stroke-miterlimit="10" pointer-events="all" style="stroke: rgb(34, 197, 94);"/></g><g><g fill="#1e293b" font-family="'PingFang SC', 'Microsoft YaHei', 'Noto Sans CJK SC', system-ui, sans-serif" text-anchor="middle" font-size="14px" style="fill: rgb(30, 41, 59);"><text x="1042.5" y="533">D3 统一会话</text></g></g></g><g data-cell-id="e8"><g transform="translate(0.5,0.5)"><path d="M 925 527 Q 845 527 845 479.5 Q 845 432 768.43 432" fill="none" stroke="#64748b" stroke-width="1.3" stroke-miterlimit="10" pointer-events="stroke" style="stroke: rgb(100, 116, 139);"/><path d="M 761.45 432 L 770.75 427.35 L 768.43 432 L 770.75 436.65 Z" fill="#64748b" stroke="#64748b" stroke-width="1.3" stroke-miterlimit="10" pointer-events="all" style="fill: rgb(100, 116, 139); stroke: rgb(100, 116, 139);"/></g></g><g data-cell-id="e8-label"><g><rect x="863" y="480" width="62" height="28" fill="none" stroke="none" pointer-events="all"/></g><g><g fill="#1e293b" font-family="'PingFang SC', 'Microsoft YaHei', 'Noto Sans CJK SC', system-ui, sans-serif" text-anchor="middle" font-size="12px" style="fill: rgb(30, 41, 59);"><text x="894" y="499">会话状态</text></g></g></g><g data-cell-id="p43-d0"><g transform="translate(0.5,0.5)"><rect x="925" y="650" width="235" height="40" fill="#d1fae5" stroke="none" pointer-events="all" style="fill: rgb(209, 250, 229);"/><path d="M 925 650 L 1160 650 M 1160 690 L 925 690" fill="none" stroke="#22c55e" stroke-width="1.3" stroke-linecap="square" stroke-miterlimit="10" pointer-events="all" style="stroke: rgb(34, 197, 94);"/></g><g><g fill="#1e293b" font-family="'PingFang SC', 'Microsoft YaHei', 'Noto Sans CJK SC', system-ui, sans-serif" text-anchor="middle" font-size="14px" style="fill: rgb(30, 41, 59);"><text x="1042.5" y="676">D1 员工与管理范围</text></g></g></g><g data-cell-id="e9"><g transform="translate(0.5,0.5)"><path d="M 925 670 Q 845 670 845 688.5 Q 845 707 768.43 707" fill="none" stroke="#64748b" stroke-width="1.3" stroke-miterlimit="10" pointer-events="stroke" style="stroke: rgb(100, 116, 139);"/><path d="M 761.45 707 L 770.75 702.35 L 768.43 707 L 770.75 711.65 Z" fill="#64748b" stroke="#64748b" stroke-width="1.3" stroke-miterlimit="10" pointer-events="all" style="fill: rgb(100, 116, 139); stroke: rgb(100, 116, 139);"/></g></g><g data-cell-id="e9-label"><g><rect x="863" y="623" width="62" height="28" fill="none" stroke="none" pointer-events="all"/></g><g><g fill="#1e293b" font-family="'PingFang SC', 'Microsoft YaHei', 'Noto Sans CJK SC', system-ui, sans-serif" text-anchor="middle" font-size="12px" style="fill: rgb(30, 41, 59);"><text x="894" y="642">员工归属</text></g></g></g><g data-cell-id="p43-d1"><g transform="translate(0.5,0.5)"><rect x="925" y="716" width="235" height="40" fill="#d1fae5" stroke="none" pointer-events="all" style="fill: rgb(209, 250, 229);"/><path d="M 925 716 L 1160 716 M 1160 756 L 925 756" fill="none" stroke="#22c55e" stroke-width="1.3" stroke-linecap="square" stroke-miterlimit="10" pointer-events="all" style="stroke: rgb(34, 197, 94);"/></g><g><g fill="#1e293b" font-family="'PingFang SC', 'Microsoft YaHei', 'Noto Sans CJK SC', system-ui, sans-serif" text-anchor="middle" font-size="14px" style="fill: rgb(30, 41, 59);"><text x="1042.5" y="742">D2 系统与目录角色</text></g></g></g><g data-cell-id="e10"><g transform="translate(0.5,0.5)"><path d="M 925 736 Q 845 736 845 721.5 Q 845 707 768.43 707" fill="none" stroke="#64748b" stroke-width="1.3" stroke-miterlimit="10" pointer-events="stroke" style="stroke: rgb(100, 116, 139);"/><path d="M 761.45 707 L 770.75 702.35 L 768.43 707 L 770.75 711.65 Z" fill="#64748b" stroke="#64748b" stroke-width="1.3" stroke-miterlimit="10" pointer-events="all" style="fill: rgb(100, 116, 139); stroke: rgb(100, 116, 139);"/></g></g><g data-cell-id="e10-label"><g><rect x="863" y="689" width="62" height="28" fill="none" stroke="none" pointer-events="all"/></g><g><g fill="#1e293b" font-family="'PingFang SC', 'Microsoft YaHei', 'Noto Sans CJK SC', system-ui, sans-serif" text-anchor="middle" font-size="12px" style="fill: rgb(30, 41, 59);"><text x="894" y="708">角色权限</text></g></g></g><g data-cell-id="p43-d2"><g transform="translate(0.5,0.5)"><rect x="925" y="782" width="235" height="40" fill="#d1fae5" stroke="none" pointer-events="all" style="fill: rgb(209, 250, 229);"/><path d="M 925 782 L 1160 782 M 1160 822 L 925 822" fill="none" stroke="#22c55e" stroke-width="1.3" stroke-linecap="square" stroke-miterlimit="10" pointer-events="all" style="stroke: rgb(34, 197, 94);"/></g><g><g fill="#1e293b" font-family="'PingFang SC', 'Microsoft YaHei', 'Noto Sans CJK SC', system-ui, sans-serif" text-anchor="middle" font-size="14px" style="fill: rgb(30, 41, 59);"><text x="1042.5" y="808">D4 员工角色分配</text></g></g></g><g data-cell-id="e11"><g transform="translate(0.5,0.5)"><path d="M 925 802 Q 845 802 845 754.5 Q 845 707 768.43 707" fill="none" stroke="#64748b" stroke-width="1.3" stroke-miterlimit="10" pointer-events="stroke" style="stroke: rgb(100, 116, 139);"/><path d="M 761.45 707 L 770.75 702.35 L 768.43 707 L 770.75 711.65 Z" fill="#64748b" stroke="#64748b" stroke-width="1.3" stroke-miterlimit="10" pointer-events="all" style="fill: rgb(100, 116, 139); stroke: rgb(100, 116, 139);"/></g></g><g data-cell-id="e11-label"><g><rect x="863" y="755" width="62" height="28" fill="none" stroke="none" pointer-events="all"/></g><g><g fill="#1e293b" font-family="'PingFang SC', 'Microsoft YaHei', 'Noto Sans CJK SC', system-ui, sans-serif" text-anchor="middle" font-size="12px" style="fill: rgb(30, 41, 59);"><text x="894" y="774">角色分配</text></g></g></g><g data-cell-id="e12"><g transform="translate(0.5,0.5)"><path d="M 620 474 Q 620 474 620 656.57" fill="none" stroke="#64748b" stroke-width="1.3" stroke-miterlimit="10" pointer-events="stroke" style="stroke: rgb(100, 116, 139);"/><path d="M 620 663.55 L 615.35 654.25 L 620 656.57 L 624.65 654.25 Z" fill="#64748b" stroke="#64748b" stroke-width="1.3" stroke-miterlimit="10" pointer-events="all" style="fill: rgb(100, 116, 139); stroke: rgb(100, 116, 139);"/></g></g><g data-cell-id="e12-label"><g><rect x="640" y="540" width="170" height="30" fill="none" stroke="none" pointer-events="all"/></g><g><g fill="#1e293b" font-family="'PingFang SC', 'Microsoft YaHei', 'Noto Sans CJK SC', system-ui, sans-serif" text-anchor="middle" font-size="12px" style="fill: rgb(30, 41, 59);"><text x="725" y="560">上下文校验结果</text></g></g></g><g data-cell-id="e13"><g transform="translate(0.5,0.5)"><path d="M 480 177 Q 350 177 350 523.5 Q 350 870 267.5 870 Q 185 870 185 936.57" fill="none" stroke="#64748b" stroke-width="1.3" stroke-miterlimit="10" pointer-events="stroke" style="stroke: rgb(100, 116, 139);"/><path d="M 185 943.55 L 180.35 934.25 L 185 936.57 L 189.65 934.25 Z" fill="#64748b" stroke="#64748b" stroke-width="1.3" stroke-miterlimit="10" pointer-events="all" style="fill: rgb(100, 116, 139); stroke: rgb(100, 116, 139);"/></g></g><g data-cell-id="e13-label"><g><rect x="170" y="550" width="170" height="30" fill="none" stroke="none" pointer-events="all"/></g><g><g fill="#1e293b" font-family="'PingFang SC', 'Microsoft YaHei', 'Noto Sans CJK SC', system-ui, sans-serif" text-anchor="middle" font-size="12px" style="fill: rgb(30, 41, 59);"><text x="255" y="570">管理变更结果</text></g></g></g><g data-cell-id="e14"><g transform="translate(0.5,0.5)"><path d="M 480 707 Q 390 707 390 847 Q 390 987 328.43 987" fill="none" stroke="#64748b" stroke-width="1.3" stroke-miterlimit="10" pointer-events="stroke" style="stroke: rgb(100, 116, 139);"/><path d="M 321.45 987 L 330.75 982.35 L 328.43 987 L 330.75 991.65 Z" fill="#64748b" stroke="#64748b" stroke-width="1.3" stroke-miterlimit="10" pointer-events="all" style="fill: rgb(100, 116, 139); stroke: rgb(100, 116, 139);"/></g></g><g data-cell-id="e14-label"><g><rect x="410" y="830" width="190" height="30" fill="none" stroke="none" pointer-events="all"/></g><g><g fill="#1e293b" font-family="'PingFang SC', 'Microsoft YaHei', 'Noto Sans CJK SC', system-ui, sans-serif" text-anchor="middle" font-size="12px" style="fill: rgb(30, 41, 59);"><text x="505" y="850">有效权限／结论</text></g></g></g><g data-cell-id="e15"><g transform="translate(0.5,0.5)"><path d="M 320 987 Q 320 987 471.57 987" fill="none" stroke="#64748b" stroke-width="1.3" stroke-miterlimit="10" pointer-events="stroke" style="stroke: rgb(100, 116, 139);"/><path d="M 478.55 987 L 469.25 991.65 L 471.57 987 L 469.25 982.35 Z" fill="#64748b" stroke="#64748b" stroke-width="1.3" stroke-miterlimit="10" pointer-events="all" style="fill: rgb(100, 116, 139); stroke: rgb(100, 116, 139);"/></g></g><g data-cell-id="e15-label"><g><rect x="480" y="900" width="260" height="30" fill="none" stroke="none" pointer-events="all"/></g><g><g fill="#1e293b" font-family="'PingFang SC', 'Microsoft YaHei', 'Noto Sans CJK SC', system-ui, sans-serif" text-anchor="middle" font-size="12px" style="fill: rgb(30, 41, 59);"><text x="610" y="920">F4 / F6 返回结果</text></g></g></g><g data-cell-id="e16"><g transform="translate(0.5,0.5)"><path d="M 185 1029 Q 185 1080 598.5 1080 Q 1012 1080 1012.42 1037.43" fill="none" stroke="#64748b" stroke-width="1.3" stroke-miterlimit="10" pointer-events="stroke" style="stroke: rgb(100, 116, 139);"/><path d="M 1012.49 1030.45 L 1017.04 1039.8 L 1012.42 1037.43 L 1007.74 1039.71 Z" fill="#64748b" stroke="#64748b" stroke-width="1.3" stroke-miterlimit="10" pointer-events="all" style="fill: rgb(100, 116, 139); stroke: rgb(100, 116, 139);"/></g></g><g data-cell-id="e16-label"><g><rect x="520" y="1090" width="420" height="30" fill="none" stroke="none" pointer-events="all"/></g><g><g fill="#1e293b" font-family="'PingFang SC', 'Microsoft YaHei', 'Noto Sans CJK SC', system-ui, sans-serif" text-anchor="middle" font-size="12px" style="fill: rgb(30, 41, 59);"><text x="730" y="1110">管理变更、拒绝及异常事件</text></g></g></g><g data-cell-id="note"><g><rect x="75" y="1125" width="1060" height="30" fill="none" stroke="none" pointer-events="all"/></g><g><g fill="#1e293b" font-family="'PingFang SC', 'Microsoft YaHei', 'Noto Sans CJK SC', system-ui, sans-serif" text-anchor="middle" font-size="12px" style="fill: rgb(30, 41, 59);"><text x="605" y="1145">输入输出均来自父 P4；信息集合读取不绕过处理，P4 不增加账号同步或新的外部参与者。</text></g></g></g></g></g></g></svg>
