<?xml version="1.0" encoding="UTF-8"?>
<!DOCTYPE svg PUBLIC "-//W3C//DTD SVG 1.1//EN" "http://www.w3.org/Graphics/SVG/1.1/DTD/svg11.dtd">
<svg xmlns="http://www.w3.org/2000/svg" style="background: #ffffff; background-color: #ffffff; color-scheme: light;" xmlns:xlink="http://www.w3.org/1999/xlink" version="1.1" width="1036px" height="741px" viewBox="0 0 1036 741"><defs><style type="text/css">text { font-family: 'PingFang SC', 'Microsoft YaHei', 'Noto Sans CJK SC', system-ui, sans-serif; }</style></defs><rect fill="#ffffff" width="100%" height="100%" x="0" y="0" style="fill: rgb(255, 255, 255);"/><g><g data-cell-id="0"><g data-cell-id="1"><g data-cell-id="title"><g><rect x="25" y="25" width="960" height="44" fill="none" stroke="none" pointer-events="all"/></g><g><g fill="#1e293b" font-family="'PingFang SC', 'Microsoft YaHei', 'Noto Sans CJK SC', system-ui, sans-serif" text-anchor="middle" font-size="20px" style="fill: rgb(30, 41, 59);"><text x="505" y="56">员工与外部系统用例</text></g></g></g><g data-cell-id="boundary"><g transform="translate(0.5,0.5)"><rect x="340" y="90" width="580" height="555" rx="44.4" ry="44.4" fill="#f8fafc" stroke="#94a3b8" stroke-width="1.3" stroke-dasharray="7.8 5.2" pointer-events="all" style="fill: rgb(248, 250, 252); stroke: rgb(148, 163, 184);"/></g></g><g data-cell-id="boundary-title"><g><rect x="352" y="98" width="556" height="26" fill="none" stroke="none" pointer-events="all"/></g><g><g fill="#1e293b" font-family="'PingFang SC', 'Microsoft YaHei', 'Noto Sans CJK SC', system-ui, sans-serif" text-anchor="middle" font-size="14px" style="fill: rgb(30, 41, 59);"><text x="630" y="117">统一权限管理系统</text></g></g></g><g data-cell-id="employee"><g transform="translate(0.5,0.5)"><ellipse cx="127.5" cy="139.38" rx="28.75" ry="14.375" fill="#dbeafe" stroke="#3b82f6" stroke-width="1.3" pointer-events="all" style="fill: rgb(219, 234, 254); stroke: rgb(59, 130, 246);"/><path d="M 127.5 153.75 L 127.5 201.67 M 127.5 163.33 L 70 163.33 M 127.5 163.33 L 185 163.33 M 127.5 201.67 L 70 240 M 127.5 201.67 L 185 240" fill="none" stroke="#3b82f6" stroke-width="1.3" stroke-miterlimit="10" pointer-events="all" style="stroke: rgb(59, 130, 246);"/></g><g><g fill="#1e293b" font-family="'PingFang SC', 'Microsoft YaHei', 'Noto Sans CJK SC', system-ui, sans-serif" text-anchor="middle" font-size="14px" style="fill: rgb(30, 41, 59);"><text x="127.5" y="188.5">员工</text></g></g></g><g data-cell-id="system"><g transform="translate(0.5,0.5)"><ellipse cx="127.5" cy="389.38" rx="28.75" ry="14.375" fill="#d1fae5" stroke="#22c55e" stroke-width="1.3" pointer-events="all" style="fill: rgb(209, 250, 229); stroke: rgb(34, 197, 94);"/><path d="M 127.5 403.75 L 127.5 451.67 M 127.5 413.33 L 70 413.33 M 127.5 413.33 L 185 413.33 M 127.5 451.67 L 70 490 M 127.5 451.67 L 185 490" fill="none" stroke="#22c55e" stroke-width="1.3" stroke-miterlimit="10" pointer-events="all" style="stroke: rgb(34, 197, 94);"/></g><g><g fill="#1e293b" font-family="'PingFang SC', 'Microsoft YaHei', 'Noto Sans CJK SC', system-ui, sans-serif" text-anchor="middle" font-size="14px" style="fill: rgb(30, 41, 59);"><text x="127.5" y="438.5">外部系统</text></g></g></g><g data-cell-id="u0"><g transform="translate(0.5,0.5)"><ellipse cx="627.5" cy="177.5" rx="237.5" ry="37.5" fill="#d1fae5" stroke="#22c55e" stroke-width="1.3" pointer-events="all" style="fill: rgb(209, 250, 229); stroke: rgb(34, 197, 94);"/></g><g><g fill="#1e293b" font-family="'PingFang SC', 'Microsoft YaHei', 'Noto Sans CJK SC', system-ui, sans-serif" text-anchor="middle" font-size="14px" style="fill: rgb(30, 41, 59);"><text x="627.5" y="175">员工跳转登录、复用会话及退出</text><text x="627.5" y="192">AUTH-002、003、004</text></g></g></g><g data-cell-id="e1"><g transform="translate(0.5,0.5)"><path d="M 185 182.5 Q 185 182.5 390 177.5" fill="none" stroke="#64748b" stroke-width="1.3" stroke-miterlimit="10" pointer-events="stroke" style="stroke: rgb(100, 116, 139);"/></g></g><g data-cell-id="u1"><g transform="translate(0.5,0.5)"><ellipse cx="627.5" cy="302.5" rx="237.5" ry="37.5" fill="#d1fae5" stroke="#22c55e" stroke-width="1.3" pointer-events="all" style="fill: rgb(209, 250, 229); stroke: rgb(34, 197, 94);"/></g><g><g fill="#1e293b" font-family="'PingFang SC', 'Microsoft YaHei', 'Noto Sans CJK SC', system-ui, sans-serif" text-anchor="middle" font-size="14px" style="fill: rgb(30, 41, 59);"><text x="627.5" y="300">后端验证本系统登录结果</text><text x="627.5" y="317">AUTH-002</text></g></g></g><g data-cell-id="e2"><g transform="translate(0.5,0.5)"><path d="M 185 432.5 Q 265 432 265 367 Q 265 302 390 302.5" fill="none" stroke="#64748b" stroke-width="1.3" stroke-miterlimit="10" pointer-events="stroke" style="stroke: rgb(100, 116, 139);"/></g></g><g data-cell-id="u2"><g transform="translate(0.5,0.5)"><ellipse cx="627.5" cy="427.5" rx="237.5" ry="37.5" fill="#d1fae5" stroke="#22c55e" stroke-width="1.3" pointer-events="all" style="fill: rgb(209, 250, 229); stroke: rgb(34, 197, 94);"/></g><g><g fill="#1e293b" font-family="'PingFang SC', 'Microsoft YaHei', 'Noto Sans CJK SC', system-ui, sans-serif" text-anchor="middle" font-size="14px" style="fill: rgb(30, 41, 59);"><text x="627.5" y="425">执行操作前实时鉴权</text><text x="627.5" y="442">AUTHZ-001</text></g></g></g><g data-cell-id="e3"><g transform="translate(0.5,0.5)"><path d="M 185 432.5 Q 265 432 265 429.5 Q 265 427 390 427.5" fill="none" stroke="#64748b" stroke-width="1.3" stroke-miterlimit="10" pointer-events="stroke" style="stroke: rgb(100, 116, 139);"/></g></g><g data-cell-id="u3"><g transform="translate(0.5,0.5)"><ellipse cx="627.5" cy="552.5" rx="237.5" ry="37.5" fill="#d1fae5" stroke="#22c55e" stroke-width="1.3" pointer-events="all" style="fill: rgb(209, 250, 229); stroke: rgb(34, 197, 94);"/></g><g><g fill="#1e293b" font-family="'PingFang SC', 'Microsoft YaHei', 'Noto Sans CJK SC', system-ui, sans-serif" text-anchor="middle" font-size="14px" style="fill: rgb(30, 41, 59);"><text x="627.5" y="550">目录变更与失败重报</text><text x="627.5" y="567">PERM-001</text></g></g></g><g data-cell-id="e4"><g transform="translate(0.5,0.5)"><path d="M 185 432.5 Q 265 432 265 492 Q 265 552 390 552.5" fill="none" stroke="#64748b" stroke-width="1.3" stroke-miterlimit="10" pointer-events="stroke" style="stroke: rgb(100, 116, 139);"/></g></g><g data-cell-id="note"><g><rect x="105" y="660" width="800" height="30" fill="none" stroke="none" pointer-events="all"/></g><g><g fill="#1e293b" font-family="'PingFang SC', 'Microsoft YaHei', 'Noto Sans CJK SC', system-ui, sans-serif" text-anchor="middle" font-size="12px" style="fill: rgb(30, 41, 59);"><text x="505" y="680">员工操作统一入口；业务系统后端验证身份、请求权限及上报目录。</text></g></g></g></g></g></g></svg>
